<mxfile host="Electron" modified="2024-06-28T18:19:28.360Z" agent="Mozilla/5.0 (Windows NT 10.0; Win64; x64) AppleWebKit/537.36 (KHTML, like Gecko) draw.io/24.6.1 Chrome/124.0.6367.207 Electron/30.0.6 Safari/537.36" etag="DsvHcBBGuEX3GcP6Rr0S" version="24.6.1" type="device">
  <diagram id="C5RBs43oDa-KdzZeNtuy" name="Page-1">
    <mxGraphModel dx="2074" dy="1196" grid="1" gridSize="10" guides="1" tooltips="1" connect="1" arrows="1" fold="1" page="1" pageScale="1" pageWidth="827" pageHeight="1169" math="0" shadow="0">
      <root>
        <mxCell id="WIyWlLk6GJQsqaUBKTNV-0" />
        <mxCell id="WIyWlLk6GJQsqaUBKTNV-1" parent="WIyWlLk6GJQsqaUBKTNV-0" />
        <mxCell id="XeEkkl0KRm6nJJpW73FU-368" style="edgeStyle=orthogonalEdgeStyle;rounded=0;orthogonalLoop=1;jettySize=auto;html=1;exitX=1;exitY=0.25;exitDx=0;exitDy=0;entryX=0;entryY=0.5;entryDx=0;entryDy=0;endArrow=none;endFill=0;fontSize=22;" parent="WIyWlLk6GJQsqaUBKTNV-1" source="XeEkkl0KRm6nJJpW73FU-374" target="XeEkkl0KRm6nJJpW73FU-380" edge="1">
          <mxGeometry relative="1" as="geometry" />
        </mxCell>
        <mxCell id="XeEkkl0KRm6nJJpW73FU-369" style="rounded=0;orthogonalLoop=1;jettySize=auto;html=1;exitX=0.75;exitY=0;exitDx=0;exitDy=0;endArrow=none;endFill=0;entryX=0.5;entryY=1;entryDx=0;entryDy=0;fontSize=22;" parent="WIyWlLk6GJQsqaUBKTNV-1" source="XeEkkl0KRm6nJJpW73FU-374" target="XeEkkl0KRm6nJJpW73FU-419" edge="1">
          <mxGeometry relative="1" as="geometry">
            <mxPoint x="550" y="294" as="targetPoint" />
          </mxGeometry>
        </mxCell>
        <mxCell id="XeEkkl0KRm6nJJpW73FU-370" style="edgeStyle=orthogonalEdgeStyle;rounded=0;orthogonalLoop=1;jettySize=auto;html=1;exitX=1;exitY=0.75;exitDx=0;exitDy=0;entryX=0;entryY=0.5;entryDx=0;entryDy=0;endArrow=none;endFill=0;fontSize=22;" parent="WIyWlLk6GJQsqaUBKTNV-1" source="XeEkkl0KRm6nJJpW73FU-374" target="XeEkkl0KRm6nJJpW73FU-387" edge="1">
          <mxGeometry relative="1" as="geometry" />
        </mxCell>
        <mxCell id="XeEkkl0KRm6nJJpW73FU-371" style="shape=connector;rounded=0;orthogonalLoop=1;jettySize=auto;html=1;exitX=0.75;exitY=1;exitDx=0;exitDy=0;entryX=0.5;entryY=0;entryDx=0;entryDy=0;strokeColor=default;align=center;verticalAlign=middle;fontFamily=Helvetica;fontSize=22;fontColor=default;labelBackgroundColor=default;endArrow=none;endFill=0;" parent="WIyWlLk6GJQsqaUBKTNV-1" source="XeEkkl0KRm6nJJpW73FU-374" target="XeEkkl0KRm6nJJpW73FU-417" edge="1">
          <mxGeometry relative="1" as="geometry" />
        </mxCell>
        <mxCell id="XeEkkl0KRm6nJJpW73FU-372" style="shape=connector;rounded=0;orthogonalLoop=1;jettySize=auto;html=1;exitX=0.25;exitY=1;exitDx=0;exitDy=0;strokeColor=default;align=center;verticalAlign=middle;fontFamily=Helvetica;fontSize=22;fontColor=default;labelBackgroundColor=default;endArrow=none;endFill=0;entryX=1;entryY=0;entryDx=0;entryDy=0;" parent="WIyWlLk6GJQsqaUBKTNV-1" source="XeEkkl0KRm6nJJpW73FU-374" target="XeEkkl0KRm6nJJpW73FU-418" edge="1">
          <mxGeometry relative="1" as="geometry">
            <mxPoint x="440" y="459" as="targetPoint" />
          </mxGeometry>
        </mxCell>
        <mxCell id="XeEkkl0KRm6nJJpW73FU-373" style="shape=connector;rounded=0;orthogonalLoop=1;jettySize=auto;html=1;exitX=0.25;exitY=0;exitDx=0;exitDy=0;strokeColor=default;align=center;verticalAlign=middle;fontFamily=Helvetica;fontSize=22;fontColor=default;labelBackgroundColor=default;endArrow=none;endFill=0;entryX=0.5;entryY=1;entryDx=0;entryDy=0;" parent="WIyWlLk6GJQsqaUBKTNV-1" source="XeEkkl0KRm6nJJpW73FU-374" target="XeEkkl0KRm6nJJpW73FU-420" edge="1">
          <mxGeometry relative="1" as="geometry">
            <mxPoint x="450" y="299" as="targetPoint" />
          </mxGeometry>
        </mxCell>
        <mxCell id="XeEkkl0KRm6nJJpW73FU-374" value="Usuário" style="rounded=0;whiteSpace=wrap;html=1;fontSize=22;" parent="WIyWlLk6GJQsqaUBKTNV-1" vertex="1">
          <mxGeometry x="424" y="338" width="160" height="80" as="geometry" />
        </mxCell>
        <mxCell id="XeEkkl0KRm6nJJpW73FU-375" style="edgeStyle=orthogonalEdgeStyle;shape=connector;rounded=0;orthogonalLoop=1;jettySize=auto;html=1;exitX=0.5;exitY=1;exitDx=0;exitDy=0;entryX=0.5;entryY=0;entryDx=0;entryDy=0;strokeColor=default;align=center;verticalAlign=middle;fontFamily=Helvetica;fontSize=22;fontColor=default;labelBackgroundColor=default;endArrow=none;endFill=0;startArrow=ERmany;startFill=0;" parent="WIyWlLk6GJQsqaUBKTNV-1" source="XeEkkl0KRm6nJJpW73FU-378" target="XeEkkl0KRm6nJJpW73FU-413" edge="1">
          <mxGeometry relative="1" as="geometry" />
        </mxCell>
        <mxCell id="XeEkkl0KRm6nJJpW73FU-376" style="edgeStyle=orthogonalEdgeStyle;shape=connector;rounded=0;orthogonalLoop=1;jettySize=auto;html=1;exitX=1;exitY=0.5;exitDx=0;exitDy=0;entryX=0;entryY=0.5;entryDx=0;entryDy=0;strokeColor=default;align=center;verticalAlign=middle;fontFamily=Helvetica;fontSize=22;fontColor=default;labelBackgroundColor=default;endArrow=none;endFill=0;" parent="WIyWlLk6GJQsqaUBKTNV-1" source="XeEkkl0KRm6nJJpW73FU-378" target="XeEkkl0KRm6nJJpW73FU-438" edge="1">
          <mxGeometry relative="1" as="geometry" />
        </mxCell>
        <mxCell id="XeEkkl0KRm6nJJpW73FU-377" style="rounded=0;orthogonalLoop=1;jettySize=auto;html=1;exitX=0.25;exitY=0;exitDx=0;exitDy=0;entryX=0.5;entryY=1;entryDx=0;entryDy=0;endArrow=none;endFill=0;" parent="WIyWlLk6GJQsqaUBKTNV-1" source="XeEkkl0KRm6nJJpW73FU-378" target="XeEkkl0KRm6nJJpW73FU-467" edge="1">
          <mxGeometry relative="1" as="geometry" />
        </mxCell>
        <mxCell id="XeEkkl0KRm6nJJpW73FU-378" value="Compra" style="rounded=0;whiteSpace=wrap;html=1;fontSize=22;" parent="WIyWlLk6GJQsqaUBKTNV-1" vertex="1">
          <mxGeometry x="894" y="214" width="160" height="80" as="geometry" />
        </mxCell>
        <mxCell id="XeEkkl0KRm6nJJpW73FU-379" style="edgeStyle=orthogonalEdgeStyle;rounded=0;orthogonalLoop=1;jettySize=auto;html=1;exitX=1;exitY=0.5;exitDx=0;exitDy=0;entryX=0;entryY=0.5;entryDx=0;entryDy=0;endArrow=ERmany;endFill=0;fontSize=22;" parent="WIyWlLk6GJQsqaUBKTNV-1" source="XeEkkl0KRm6nJJpW73FU-380" target="XeEkkl0KRm6nJJpW73FU-378" edge="1">
          <mxGeometry relative="1" as="geometry" />
        </mxCell>
        <mxCell id="XeEkkl0KRm6nJJpW73FU-380" value="realiza" style="rhombus;whiteSpace=wrap;html=1;fontSize=22;" parent="WIyWlLk6GJQsqaUBKTNV-1" vertex="1">
          <mxGeometry x="667" y="204" width="100" height="100" as="geometry" />
        </mxCell>
        <mxCell id="XeEkkl0KRm6nJJpW73FU-381" style="edgeStyle=orthogonalEdgeStyle;shape=connector;rounded=0;orthogonalLoop=1;jettySize=auto;html=1;exitX=1;exitY=0.5;exitDx=0;exitDy=0;entryX=0;entryY=0.5;entryDx=0;entryDy=0;strokeColor=default;align=center;verticalAlign=middle;fontFamily=Helvetica;fontSize=22;fontColor=default;labelBackgroundColor=default;endArrow=none;endFill=0;" parent="WIyWlLk6GJQsqaUBKTNV-1" source="XeEkkl0KRm6nJJpW73FU-385" target="XeEkkl0KRm6nJJpW73FU-440" edge="1">
          <mxGeometry relative="1" as="geometry" />
        </mxCell>
        <mxCell id="XeEkkl0KRm6nJJpW73FU-382" style="edgeStyle=none;shape=connector;rounded=0;orthogonalLoop=1;jettySize=auto;html=1;exitX=0.25;exitY=1;exitDx=0;exitDy=0;entryX=1;entryY=0;entryDx=0;entryDy=0;strokeColor=default;align=center;verticalAlign=middle;fontFamily=Helvetica;fontSize=22;fontColor=default;labelBackgroundColor=default;endArrow=none;endFill=0;" parent="WIyWlLk6GJQsqaUBKTNV-1" source="XeEkkl0KRm6nJJpW73FU-385" target="XeEkkl0KRm6nJJpW73FU-441" edge="1">
          <mxGeometry relative="1" as="geometry" />
        </mxCell>
        <mxCell id="XeEkkl0KRm6nJJpW73FU-383" style="edgeStyle=none;shape=connector;rounded=0;orthogonalLoop=1;jettySize=auto;html=1;exitX=0.5;exitY=1;exitDx=0;exitDy=0;strokeColor=default;align=center;verticalAlign=middle;fontFamily=Helvetica;fontSize=22;fontColor=default;labelBackgroundColor=default;endArrow=none;endFill=0;entryX=0.5;entryY=0;entryDx=0;entryDy=0;" parent="WIyWlLk6GJQsqaUBKTNV-1" source="XeEkkl0KRm6nJJpW73FU-385" target="XeEkkl0KRm6nJJpW73FU-442" edge="1">
          <mxGeometry relative="1" as="geometry">
            <mxPoint x="990.0000000000002" y="1029" as="targetPoint" />
          </mxGeometry>
        </mxCell>
        <mxCell id="XeEkkl0KRm6nJJpW73FU-384" style="edgeStyle=none;shape=connector;rounded=0;orthogonalLoop=1;jettySize=auto;html=1;exitX=0.75;exitY=1;exitDx=0;exitDy=0;strokeColor=default;align=center;verticalAlign=middle;fontFamily=Helvetica;fontSize=22;fontColor=default;labelBackgroundColor=default;endArrow=none;endFill=0;entryX=1;entryY=1;entryDx=0;entryDy=0;" parent="WIyWlLk6GJQsqaUBKTNV-1" source="XeEkkl0KRm6nJJpW73FU-385" target="XeEkkl0KRm6nJJpW73FU-443" edge="1">
          <mxGeometry relative="1" as="geometry">
            <mxPoint x="900" y="809" as="targetPoint" />
          </mxGeometry>
        </mxCell>
        <mxCell id="XeEkkl0KRm6nJJpW73FU-385" value="Empréstimo" style="rounded=0;whiteSpace=wrap;html=1;fontSize=22;" parent="WIyWlLk6GJQsqaUBKTNV-1" vertex="1">
          <mxGeometry x="894" y="834" width="160" height="80" as="geometry" />
        </mxCell>
        <mxCell id="XeEkkl0KRm6nJJpW73FU-386" style="edgeStyle=orthogonalEdgeStyle;rounded=0;orthogonalLoop=1;jettySize=auto;html=1;exitX=1;exitY=0.5;exitDx=0;exitDy=0;entryX=0;entryY=0.5;entryDx=0;entryDy=0;endArrow=ERmany;endFill=0;fontSize=22;" parent="WIyWlLk6GJQsqaUBKTNV-1" source="XeEkkl0KRm6nJJpW73FU-387" target="XeEkkl0KRm6nJJpW73FU-385" edge="1">
          <mxGeometry relative="1" as="geometry">
            <mxPoint x="874" y="802.7058823529414" as="targetPoint" />
          </mxGeometry>
        </mxCell>
        <mxCell id="XeEkkl0KRm6nJJpW73FU-387" value="realiza" style="rhombus;whiteSpace=wrap;html=1;fontSize=22;" parent="WIyWlLk6GJQsqaUBKTNV-1" vertex="1">
          <mxGeometry x="667" y="824" width="100" height="100" as="geometry" />
        </mxCell>
        <mxCell id="XeEkkl0KRm6nJJpW73FU-388" style="shape=connector;rounded=0;orthogonalLoop=1;jettySize=auto;html=1;exitX=0.75;exitY=0;exitDx=0;exitDy=0;strokeColor=default;align=center;verticalAlign=middle;fontFamily=Helvetica;fontSize=22;fontColor=default;labelBackgroundColor=default;endArrow=none;endFill=0;entryX=0.5;entryY=1;entryDx=0;entryDy=0;" parent="WIyWlLk6GJQsqaUBKTNV-1" source="XeEkkl0KRm6nJJpW73FU-392" target="XeEkkl0KRm6nJJpW73FU-432" edge="1">
          <mxGeometry relative="1" as="geometry">
            <mxPoint x="1469" y="283.5" as="targetPoint" />
          </mxGeometry>
        </mxCell>
        <mxCell id="XeEkkl0KRm6nJJpW73FU-389" style="edgeStyle=none;shape=connector;rounded=0;orthogonalLoop=1;jettySize=auto;html=1;exitX=0.25;exitY=1;exitDx=0;exitDy=0;strokeColor=default;align=center;verticalAlign=middle;fontFamily=Helvetica;fontSize=22;fontColor=default;labelBackgroundColor=default;endArrow=none;endFill=0;entryX=1;entryY=0;entryDx=0;entryDy=0;" parent="WIyWlLk6GJQsqaUBKTNV-1" source="XeEkkl0KRm6nJJpW73FU-392" target="XeEkkl0KRm6nJJpW73FU-433" edge="1">
          <mxGeometry relative="1" as="geometry">
            <mxPoint x="1354" y="419" as="targetPoint" />
          </mxGeometry>
        </mxCell>
        <mxCell id="XeEkkl0KRm6nJJpW73FU-390" style="edgeStyle=none;shape=connector;rounded=0;orthogonalLoop=1;jettySize=auto;html=1;exitX=0.5;exitY=0;exitDx=0;exitDy=0;entryX=0.5;entryY=1;entryDx=0;entryDy=0;strokeColor=default;align=center;verticalAlign=middle;fontFamily=Helvetica;fontSize=22;fontColor=default;labelBackgroundColor=default;endArrow=none;endFill=0;" parent="WIyWlLk6GJQsqaUBKTNV-1" source="XeEkkl0KRm6nJJpW73FU-392" target="XeEkkl0KRm6nJJpW73FU-444" edge="1">
          <mxGeometry relative="1" as="geometry" />
        </mxCell>
        <mxCell id="XeEkkl0KRm6nJJpW73FU-391" style="edgeStyle=orthogonalEdgeStyle;rounded=0;orthogonalLoop=1;jettySize=auto;html=1;exitX=1;exitY=0.75;exitDx=0;exitDy=0;entryX=0;entryY=0.5;entryDx=0;entryDy=0;endArrow=none;endFill=0;" parent="WIyWlLk6GJQsqaUBKTNV-1" source="XeEkkl0KRm6nJJpW73FU-392" target="XeEkkl0KRm6nJJpW73FU-431" edge="1">
          <mxGeometry relative="1" as="geometry" />
        </mxCell>
        <mxCell id="eWyS7J7H_QuW0ip4Bb5o-3" style="rounded=0;orthogonalLoop=1;jettySize=auto;html=1;exitX=0.75;exitY=1;exitDx=0;exitDy=0;entryX=0;entryY=0;entryDx=0;entryDy=0;endArrow=none;endFill=0;" edge="1" parent="WIyWlLk6GJQsqaUBKTNV-1" source="XeEkkl0KRm6nJJpW73FU-392" target="eWyS7J7H_QuW0ip4Bb5o-1">
          <mxGeometry relative="1" as="geometry" />
        </mxCell>
        <mxCell id="eWyS7J7H_QuW0ip4Bb5o-4" style="rounded=0;orthogonalLoop=1;jettySize=auto;html=1;exitX=1;exitY=0;exitDx=0;exitDy=0;entryX=0;entryY=1;entryDx=0;entryDy=0;endArrow=none;endFill=0;" edge="1" parent="WIyWlLk6GJQsqaUBKTNV-1" source="XeEkkl0KRm6nJJpW73FU-392" target="eWyS7J7H_QuW0ip4Bb5o-0">
          <mxGeometry relative="1" as="geometry" />
        </mxCell>
        <mxCell id="XeEkkl0KRm6nJJpW73FU-392" value="Livro" style="rounded=0;whiteSpace=wrap;html=1;fontSize=22;" parent="WIyWlLk6GJQsqaUBKTNV-1" vertex="1">
          <mxGeometry x="1344" y="314" width="160" height="80" as="geometry" />
        </mxCell>
        <mxCell id="XeEkkl0KRm6nJJpW73FU-393" style="shape=connector;rounded=0;orthogonalLoop=1;jettySize=auto;html=1;exitX=1;exitY=0.25;exitDx=0;exitDy=0;strokeColor=default;align=center;verticalAlign=middle;fontFamily=Helvetica;fontSize=22;fontColor=default;labelBackgroundColor=default;endArrow=none;endFill=0;entryX=0;entryY=1;entryDx=0;entryDy=0;" parent="WIyWlLk6GJQsqaUBKTNV-1" source="XeEkkl0KRm6nJJpW73FU-396" target="XeEkkl0KRm6nJJpW73FU-423" edge="1">
          <mxGeometry relative="1" as="geometry">
            <mxPoint x="1624" y="710" as="targetPoint" />
          </mxGeometry>
        </mxCell>
        <mxCell id="XeEkkl0KRm6nJJpW73FU-394" style="rounded=0;orthogonalLoop=1;jettySize=auto;html=1;exitX=1;exitY=1;exitDx=0;exitDy=0;entryX=0;entryY=0;entryDx=0;entryDy=0;endArrow=none;endFill=0;" parent="WIyWlLk6GJQsqaUBKTNV-1" source="XeEkkl0KRm6nJJpW73FU-396" target="XeEkkl0KRm6nJJpW73FU-463" edge="1">
          <mxGeometry relative="1" as="geometry" />
        </mxCell>
        <mxCell id="XeEkkl0KRm6nJJpW73FU-395" style="rounded=0;orthogonalLoop=1;jettySize=auto;html=1;exitX=0;exitY=1;exitDx=0;exitDy=0;entryX=1;entryY=0;entryDx=0;entryDy=0;endArrow=none;endFill=0;" parent="WIyWlLk6GJQsqaUBKTNV-1" source="XeEkkl0KRm6nJJpW73FU-396" target="XeEkkl0KRm6nJJpW73FU-464" edge="1">
          <mxGeometry relative="1" as="geometry" />
        </mxCell>
        <mxCell id="XeEkkl0KRm6nJJpW73FU-396" value="Biblioteca" style="rounded=0;whiteSpace=wrap;html=1;fontSize=22;" parent="WIyWlLk6GJQsqaUBKTNV-1" vertex="1">
          <mxGeometry x="1434" y="669" width="160" height="80" as="geometry" />
        </mxCell>
        <mxCell id="XeEkkl0KRm6nJJpW73FU-397" style="shape=connector;rounded=0;orthogonalLoop=1;jettySize=auto;html=1;exitX=1;exitY=0.5;exitDx=0;exitDy=0;entryX=0;entryY=0.5;entryDx=0;entryDy=0;strokeColor=default;align=center;verticalAlign=middle;fontFamily=Helvetica;fontSize=22;fontColor=default;labelBackgroundColor=default;endArrow=none;endFill=0;" parent="WIyWlLk6GJQsqaUBKTNV-1" source="XeEkkl0KRm6nJJpW73FU-399" target="XeEkkl0KRm6nJJpW73FU-424" edge="1">
          <mxGeometry relative="1" as="geometry" />
        </mxCell>
        <mxCell id="XeEkkl0KRm6nJJpW73FU-398" style="edgeStyle=none;shape=connector;rounded=0;orthogonalLoop=1;jettySize=auto;html=1;exitX=1;exitY=0.75;exitDx=0;exitDy=0;strokeColor=default;align=center;verticalAlign=middle;fontFamily=Helvetica;fontSize=22;fontColor=default;labelBackgroundColor=default;endArrow=none;endFill=0;entryX=0;entryY=0.5;entryDx=0;entryDy=0;" parent="WIyWlLk6GJQsqaUBKTNV-1" source="XeEkkl0KRm6nJJpW73FU-399" target="XeEkkl0KRm6nJJpW73FU-434" edge="1">
          <mxGeometry relative="1" as="geometry">
            <mxPoint x="1644" y="1030" as="targetPoint" />
          </mxGeometry>
        </mxCell>
        <mxCell id="XeEkkl0KRm6nJJpW73FU-399" value="Universidade" style="rounded=0;whiteSpace=wrap;html=1;fontSize=22;" parent="WIyWlLk6GJQsqaUBKTNV-1" vertex="1">
          <mxGeometry x="1434" y="940" width="160" height="80" as="geometry" />
        </mxCell>
        <mxCell id="XeEkkl0KRm6nJJpW73FU-400" style="edgeStyle=orthogonalEdgeStyle;shape=connector;rounded=0;orthogonalLoop=1;jettySize=auto;html=1;exitX=0.5;exitY=0;exitDx=0;exitDy=0;entryX=0.5;entryY=1;entryDx=0;entryDy=0;strokeColor=default;align=center;verticalAlign=middle;fontFamily=Helvetica;fontSize=22;fontColor=default;labelBackgroundColor=default;endArrow=ERmany;endFill=0;" parent="WIyWlLk6GJQsqaUBKTNV-1" source="XeEkkl0KRm6nJJpW73FU-403" target="XeEkkl0KRm6nJJpW73FU-392" edge="1">
          <mxGeometry relative="1" as="geometry" />
        </mxCell>
        <mxCell id="XeEkkl0KRm6nJJpW73FU-401" style="edgeStyle=orthogonalEdgeStyle;shape=connector;rounded=0;orthogonalLoop=1;jettySize=auto;html=1;exitX=0.5;exitY=1;exitDx=0;exitDy=0;entryX=0.5;entryY=0;entryDx=0;entryDy=0;strokeColor=default;align=center;verticalAlign=middle;fontFamily=Helvetica;fontSize=22;fontColor=default;labelBackgroundColor=default;endArrow=ERmany;endFill=0;" parent="WIyWlLk6GJQsqaUBKTNV-1" source="XeEkkl0KRm6nJJpW73FU-403" target="XeEkkl0KRm6nJJpW73FU-396" edge="1">
          <mxGeometry relative="1" as="geometry" />
        </mxCell>
        <mxCell id="XeEkkl0KRm6nJJpW73FU-402" style="rounded=0;orthogonalLoop=1;jettySize=auto;html=1;exitX=1;exitY=1;exitDx=0;exitDy=0;entryX=0;entryY=0.5;entryDx=0;entryDy=0;endArrow=none;endFill=0;" parent="WIyWlLk6GJQsqaUBKTNV-1" source="XeEkkl0KRm6nJJpW73FU-403" target="XeEkkl0KRm6nJJpW73FU-469" edge="1">
          <mxGeometry relative="1" as="geometry">
            <mxPoint x="1510" y="534" as="targetPoint" />
          </mxGeometry>
        </mxCell>
        <mxCell id="XeEkkl0KRm6nJJpW73FU-403" value="detém" style="rhombus;whiteSpace=wrap;html=1;fontSize=22;" parent="WIyWlLk6GJQsqaUBKTNV-1" vertex="1">
          <mxGeometry x="1374" y="449" width="100" height="100" as="geometry" />
        </mxCell>
        <mxCell id="XeEkkl0KRm6nJJpW73FU-404" style="edgeStyle=orthogonalEdgeStyle;shape=connector;rounded=0;orthogonalLoop=1;jettySize=auto;html=1;exitX=0.5;exitY=0;exitDx=0;exitDy=0;entryX=0.5;entryY=1;entryDx=0;entryDy=0;strokeColor=default;align=center;verticalAlign=middle;fontFamily=Helvetica;fontSize=22;fontColor=default;labelBackgroundColor=default;endArrow=ERmany;endFill=0;" parent="WIyWlLk6GJQsqaUBKTNV-1" source="XeEkkl0KRm6nJJpW73FU-406" target="XeEkkl0KRm6nJJpW73FU-396" edge="1">
          <mxGeometry relative="1" as="geometry" />
        </mxCell>
        <mxCell id="XeEkkl0KRm6nJJpW73FU-405" style="edgeStyle=orthogonalEdgeStyle;shape=connector;rounded=0;orthogonalLoop=1;jettySize=auto;html=1;exitX=0.5;exitY=1;exitDx=0;exitDy=0;entryX=0.5;entryY=0;entryDx=0;entryDy=0;strokeColor=default;align=center;verticalAlign=middle;fontFamily=Helvetica;fontSize=22;fontColor=default;labelBackgroundColor=default;endArrow=none;endFill=0;" parent="WIyWlLk6GJQsqaUBKTNV-1" source="XeEkkl0KRm6nJJpW73FU-406" target="XeEkkl0KRm6nJJpW73FU-399" edge="1">
          <mxGeometry relative="1" as="geometry" />
        </mxCell>
        <mxCell id="XeEkkl0KRm6nJJpW73FU-406" value="possui" style="rhombus;whiteSpace=wrap;html=1;fontSize=22;" parent="WIyWlLk6GJQsqaUBKTNV-1" vertex="1">
          <mxGeometry x="1464" y="790" width="100" height="100" as="geometry" />
        </mxCell>
        <mxCell id="XeEkkl0KRm6nJJpW73FU-407" style="edgeStyle=orthogonalEdgeStyle;shape=connector;rounded=0;orthogonalLoop=1;jettySize=auto;html=1;exitX=0.5;exitY=1;exitDx=0;exitDy=0;entryX=0.5;entryY=0;entryDx=0;entryDy=0;strokeColor=default;align=center;verticalAlign=middle;fontFamily=Helvetica;fontSize=22;fontColor=default;labelBackgroundColor=default;endArrow=none;endFill=0;" parent="WIyWlLk6GJQsqaUBKTNV-1" source="XeEkkl0KRm6nJJpW73FU-411" target="XeEkkl0KRm6nJJpW73FU-415" edge="1">
          <mxGeometry relative="1" as="geometry" />
        </mxCell>
        <mxCell id="XeEkkl0KRm6nJJpW73FU-408" style="shape=connector;rounded=0;orthogonalLoop=1;jettySize=auto;html=1;exitX=0;exitY=0.5;exitDx=0;exitDy=0;strokeColor=default;align=center;verticalAlign=middle;fontFamily=Helvetica;fontSize=22;fontColor=default;labelBackgroundColor=default;endArrow=none;endFill=0;entryX=1;entryY=0.5;entryDx=0;entryDy=0;" parent="WIyWlLk6GJQsqaUBKTNV-1" source="XeEkkl0KRm6nJJpW73FU-411" target="XeEkkl0KRm6nJJpW73FU-416" edge="1">
          <mxGeometry relative="1" as="geometry">
            <mxPoint x="800" y="559" as="targetPoint" />
          </mxGeometry>
        </mxCell>
        <mxCell id="XeEkkl0KRm6nJJpW73FU-409" style="edgeStyle=orthogonalEdgeStyle;shape=connector;rounded=0;orthogonalLoop=1;jettySize=auto;html=1;exitX=1;exitY=0.5;exitDx=0;exitDy=0;entryX=0;entryY=0.5;entryDx=0;entryDy=0;strokeColor=default;align=center;verticalAlign=middle;fontFamily=Helvetica;fontSize=22;fontColor=default;labelBackgroundColor=default;endArrow=none;endFill=0;" parent="WIyWlLk6GJQsqaUBKTNV-1" source="XeEkkl0KRm6nJJpW73FU-411" target="XeEkkl0KRm6nJJpW73FU-426" edge="1">
          <mxGeometry relative="1" as="geometry" />
        </mxCell>
        <mxCell id="XeEkkl0KRm6nJJpW73FU-410" style="rounded=0;orthogonalLoop=1;jettySize=auto;html=1;exitX=0;exitY=0.25;exitDx=0;exitDy=0;entryX=1;entryY=1;entryDx=0;entryDy=0;endArrow=none;endFill=0;" parent="WIyWlLk6GJQsqaUBKTNV-1" source="XeEkkl0KRm6nJJpW73FU-411" target="XeEkkl0KRm6nJJpW73FU-465" edge="1">
          <mxGeometry relative="1" as="geometry" />
        </mxCell>
        <mxCell id="XeEkkl0KRm6nJJpW73FU-411" value="Funcionário" style="rounded=0;whiteSpace=wrap;html=1;fontSize=22;" parent="WIyWlLk6GJQsqaUBKTNV-1" vertex="1">
          <mxGeometry x="894" y="519" width="160" height="80" as="geometry" />
        </mxCell>
        <mxCell id="XeEkkl0KRm6nJJpW73FU-412" style="edgeStyle=orthogonalEdgeStyle;shape=connector;rounded=0;orthogonalLoop=1;jettySize=auto;html=1;exitX=0.5;exitY=1;exitDx=0;exitDy=0;entryX=0.5;entryY=0;entryDx=0;entryDy=0;strokeColor=default;align=center;verticalAlign=middle;fontFamily=Helvetica;fontSize=22;fontColor=default;labelBackgroundColor=default;endArrow=none;endFill=0;" parent="WIyWlLk6GJQsqaUBKTNV-1" source="XeEkkl0KRm6nJJpW73FU-413" target="XeEkkl0KRm6nJJpW73FU-411" edge="1">
          <mxGeometry relative="1" as="geometry" />
        </mxCell>
        <mxCell id="XeEkkl0KRm6nJJpW73FU-413" value="media" style="rhombus;whiteSpace=wrap;html=1;fontSize=22;" parent="WIyWlLk6GJQsqaUBKTNV-1" vertex="1">
          <mxGeometry x="924" y="349" width="100" height="100" as="geometry" />
        </mxCell>
        <mxCell id="XeEkkl0KRm6nJJpW73FU-414" style="edgeStyle=orthogonalEdgeStyle;shape=connector;rounded=0;orthogonalLoop=1;jettySize=auto;html=1;exitX=0.5;exitY=1;exitDx=0;exitDy=0;entryX=0.5;entryY=0;entryDx=0;entryDy=0;strokeColor=default;align=center;verticalAlign=middle;fontFamily=Helvetica;fontSize=22;fontColor=default;labelBackgroundColor=default;endArrow=ERmany;endFill=0;" parent="WIyWlLk6GJQsqaUBKTNV-1" source="XeEkkl0KRm6nJJpW73FU-415" target="XeEkkl0KRm6nJJpW73FU-385" edge="1">
          <mxGeometry relative="1" as="geometry" />
        </mxCell>
        <mxCell id="XeEkkl0KRm6nJJpW73FU-415" value="media" style="rhombus;whiteSpace=wrap;html=1;fontSize=22;" parent="WIyWlLk6GJQsqaUBKTNV-1" vertex="1">
          <mxGeometry x="924" y="669" width="100" height="100" as="geometry" />
        </mxCell>
        <mxCell id="XeEkkl0KRm6nJJpW73FU-416" value="nome" style="ellipse;whiteSpace=wrap;html=1;fontSize=22;fontStyle=0" parent="WIyWlLk6GJQsqaUBKTNV-1" vertex="1">
          <mxGeometry x="760" y="540" width="90" height="59" as="geometry" />
        </mxCell>
        <mxCell id="XeEkkl0KRm6nJJpW73FU-417" value="endereço" style="ellipse;whiteSpace=wrap;html=1;fontSize=22;" parent="WIyWlLk6GJQsqaUBKTNV-1" vertex="1">
          <mxGeometry x="490" y="449" width="110" height="59" as="geometry" />
        </mxCell>
        <mxCell id="XeEkkl0KRm6nJJpW73FU-418" value="telefone" style="ellipse;whiteSpace=wrap;html=1;fontSize=22;" parent="WIyWlLk6GJQsqaUBKTNV-1" vertex="1">
          <mxGeometry x="370" y="449" width="110" height="59" as="geometry" />
        </mxCell>
        <mxCell id="XeEkkl0KRm6nJJpW73FU-419" value="nome" style="ellipse;whiteSpace=wrap;html=1;fontSize=22;" parent="WIyWlLk6GJQsqaUBKTNV-1" vertex="1">
          <mxGeometry x="500" y="249" width="110" height="59" as="geometry" />
        </mxCell>
        <mxCell id="XeEkkl0KRm6nJJpW73FU-420" value="CPF" style="ellipse;whiteSpace=wrap;html=1;fontSize=22;fontStyle=4" parent="WIyWlLk6GJQsqaUBKTNV-1" vertex="1">
          <mxGeometry x="385" y="259" width="110" height="59" as="geometry" />
        </mxCell>
        <mxCell id="XeEkkl0KRm6nJJpW73FU-421" style="shape=connector;rounded=0;orthogonalLoop=1;jettySize=auto;html=1;exitX=0.876;exitY=0.847;exitDx=0;exitDy=0;entryX=0;entryY=0;entryDx=0;entryDy=0;strokeColor=default;align=center;verticalAlign=middle;fontFamily=Helvetica;fontSize=22;fontColor=default;labelBackgroundColor=default;endArrow=none;endFill=0;exitPerimeter=0;" parent="WIyWlLk6GJQsqaUBKTNV-1" source="XeEkkl0KRm6nJJpW73FU-422" target="XeEkkl0KRm6nJJpW73FU-392" edge="1">
          <mxGeometry relative="1" as="geometry" />
        </mxCell>
        <mxCell id="XeEkkl0KRm6nJJpW73FU-422" value="id" style="ellipse;whiteSpace=wrap;html=1;fontSize=22;fontStyle=4" parent="WIyWlLk6GJQsqaUBKTNV-1" vertex="1">
          <mxGeometry x="1230" y="245" width="110" height="59" as="geometry" />
        </mxCell>
        <mxCell id="XeEkkl0KRm6nJJpW73FU-423" value="nome" style="ellipse;whiteSpace=wrap;html=1;fontSize=22;fontStyle=0" parent="WIyWlLk6GJQsqaUBKTNV-1" vertex="1">
          <mxGeometry x="1616.22" y="619" width="110" height="59" as="geometry" />
        </mxCell>
        <mxCell id="XeEkkl0KRm6nJJpW73FU-424" value="nome" style="ellipse;whiteSpace=wrap;html=1;fontSize=22;fontStyle=0" parent="WIyWlLk6GJQsqaUBKTNV-1" vertex="1">
          <mxGeometry x="1624" y="905.5" width="110" height="59" as="geometry" />
        </mxCell>
        <mxCell id="XeEkkl0KRm6nJJpW73FU-425" style="edgeStyle=orthogonalEdgeStyle;shape=connector;rounded=0;orthogonalLoop=1;jettySize=auto;html=1;exitX=1;exitY=0.5;exitDx=0;exitDy=0;entryX=0;entryY=0.5;entryDx=0;entryDy=0;strokeColor=default;align=center;verticalAlign=middle;fontFamily=Helvetica;fontSize=22;fontColor=default;labelBackgroundColor=default;endArrow=none;endFill=0;" parent="WIyWlLk6GJQsqaUBKTNV-1" source="XeEkkl0KRm6nJJpW73FU-426" target="XeEkkl0KRm6nJJpW73FU-396" edge="1">
          <mxGeometry relative="1" as="geometry">
            <mxPoint x="1394" y="709" as="sourcePoint" />
          </mxGeometry>
        </mxCell>
        <mxCell id="XeEkkl0KRm6nJJpW73FU-426" value="&lt;div style=&quot;font-size: 22px;&quot;&gt;trabalha&lt;/div&gt;&lt;div style=&quot;font-size: 22px;&quot;&gt;para&lt;br style=&quot;font-size: 22px;&quot;&gt;&lt;/div&gt;" style="rhombus;whiteSpace=wrap;html=1;fontSize=22;" parent="WIyWlLk6GJQsqaUBKTNV-1" vertex="1">
          <mxGeometry x="1230" y="584" width="130" height="129" as="geometry" />
        </mxCell>
        <mxCell id="XeEkkl0KRm6nJJpW73FU-427" style="edgeStyle=orthogonalEdgeStyle;shape=connector;rounded=0;orthogonalLoop=1;jettySize=auto;html=1;exitX=0;exitY=0.5;exitDx=0;exitDy=0;entryX=1;entryY=0.5;entryDx=0;entryDy=0;strokeColor=default;align=center;verticalAlign=middle;fontFamily=Helvetica;fontSize=22;fontColor=default;labelBackgroundColor=default;endArrow=none;endFill=0;startArrow=ERmany;startFill=0;" parent="WIyWlLk6GJQsqaUBKTNV-1" source="XeEkkl0KRm6nJJpW73FU-430" target="XeEkkl0KRm6nJJpW73FU-431" edge="1">
          <mxGeometry relative="1" as="geometry">
            <mxPoint x="1711.2200000000003" y="368.5" as="targetPoint" />
          </mxGeometry>
        </mxCell>
        <mxCell id="XeEkkl0KRm6nJJpW73FU-428" style="rounded=0;orthogonalLoop=1;jettySize=auto;html=1;exitX=0.75;exitY=1;exitDx=0;exitDy=0;entryX=0.462;entryY=0.028;entryDx=0;entryDy=0;endArrow=none;endFill=0;entryPerimeter=0;" parent="WIyWlLk6GJQsqaUBKTNV-1" source="XeEkkl0KRm6nJJpW73FU-430" target="XeEkkl0KRm6nJJpW73FU-466" edge="1">
          <mxGeometry relative="1" as="geometry" />
        </mxCell>
        <mxCell id="XeEkkl0KRm6nJJpW73FU-429" style="rounded=0;orthogonalLoop=1;jettySize=auto;html=1;exitX=0.25;exitY=0;exitDx=0;exitDy=0;entryX=0.5;entryY=1;entryDx=0;entryDy=0;endArrow=none;endFill=0;" parent="WIyWlLk6GJQsqaUBKTNV-1" source="XeEkkl0KRm6nJJpW73FU-430" target="XeEkkl0KRm6nJJpW73FU-468" edge="1">
          <mxGeometry relative="1" as="geometry" />
        </mxCell>
        <mxCell id="XeEkkl0KRm6nJJpW73FU-430" value="Personagem" style="rounded=0;whiteSpace=wrap;html=1;fontSize=22;" parent="WIyWlLk6GJQsqaUBKTNV-1" vertex="1">
          <mxGeometry x="1787.72" y="334" width="160" height="80" as="geometry" />
        </mxCell>
        <mxCell id="XeEkkl0KRm6nJJpW73FU-431" value="participa" style="rhombus;whiteSpace=wrap;html=1;fontSize=22;" parent="WIyWlLk6GJQsqaUBKTNV-1" vertex="1">
          <mxGeometry x="1602" y="319" width="109.22" height="110" as="geometry" />
        </mxCell>
        <mxCell id="XeEkkl0KRm6nJJpW73FU-432" value="dataPublicacao" style="ellipse;whiteSpace=wrap;html=1;fontSize=22;fontStyle=0" parent="WIyWlLk6GJQsqaUBKTNV-1" vertex="1">
          <mxGeometry x="1426" y="165.5" width="176" height="59" as="geometry" />
        </mxCell>
        <mxCell id="XeEkkl0KRm6nJJpW73FU-433" value="genero" style="ellipse;whiteSpace=wrap;html=1;fontSize=22;fontStyle=0" parent="WIyWlLk6GJQsqaUBKTNV-1" vertex="1">
          <mxGeometry x="1264" y="410" width="110" height="59" as="geometry" />
        </mxCell>
        <mxCell id="XeEkkl0KRm6nJJpW73FU-434" value="id" style="ellipse;whiteSpace=wrap;html=1;fontSize=22;fontStyle=4" parent="WIyWlLk6GJQsqaUBKTNV-1" vertex="1">
          <mxGeometry x="1624" y="975" width="110" height="59" as="geometry" />
        </mxCell>
        <mxCell id="XeEkkl0KRm6nJJpW73FU-435" style="edgeStyle=none;shape=connector;rounded=0;orthogonalLoop=1;jettySize=auto;html=1;exitX=1;exitY=0;exitDx=0;exitDy=0;entryX=0.25;entryY=1;entryDx=0;entryDy=0;strokeColor=default;align=center;verticalAlign=middle;fontFamily=Helvetica;fontSize=22;fontColor=default;labelBackgroundColor=default;endArrow=none;endFill=0;" parent="WIyWlLk6GJQsqaUBKTNV-1" source="XeEkkl0KRm6nJJpW73FU-436" target="XeEkkl0KRm6nJJpW73FU-430" edge="1">
          <mxGeometry relative="1" as="geometry" />
        </mxCell>
        <mxCell id="XeEkkl0KRm6nJJpW73FU-436" value="nome" style="ellipse;whiteSpace=wrap;html=1;fontSize=22;fontStyle=0" parent="WIyWlLk6GJQsqaUBKTNV-1" vertex="1">
          <mxGeometry x="1711.22" y="450" width="120" height="69" as="geometry" />
        </mxCell>
        <mxCell id="XeEkkl0KRm6nJJpW73FU-437" style="edgeStyle=orthogonalEdgeStyle;rounded=0;orthogonalLoop=1;jettySize=auto;html=1;exitX=0.5;exitY=1;exitDx=0;exitDy=0;entryX=0;entryY=0.25;entryDx=0;entryDy=0;endArrow=none;endFill=0;" parent="WIyWlLk6GJQsqaUBKTNV-1" source="XeEkkl0KRm6nJJpW73FU-438" target="XeEkkl0KRm6nJJpW73FU-392" edge="1">
          <mxGeometry relative="1" as="geometry" />
        </mxCell>
        <mxCell id="XeEkkl0KRm6nJJpW73FU-438" value="adquire" style="rhombus;whiteSpace=wrap;html=1;fontSize=22;" parent="WIyWlLk6GJQsqaUBKTNV-1" vertex="1">
          <mxGeometry x="1120" y="204" width="100" height="100" as="geometry" />
        </mxCell>
        <mxCell id="XeEkkl0KRm6nJJpW73FU-439" style="edgeStyle=orthogonalEdgeStyle;rounded=0;orthogonalLoop=1;jettySize=auto;html=1;exitX=0.5;exitY=0;exitDx=0;exitDy=0;entryX=0;entryY=0.75;entryDx=0;entryDy=0;endArrow=none;endFill=0;" parent="WIyWlLk6GJQsqaUBKTNV-1" source="XeEkkl0KRm6nJJpW73FU-440" target="XeEkkl0KRm6nJJpW73FU-392" edge="1">
          <mxGeometry relative="1" as="geometry" />
        </mxCell>
        <mxCell id="XeEkkl0KRm6nJJpW73FU-440" value="aluga" style="rhombus;whiteSpace=wrap;html=1;fontSize=22;" parent="WIyWlLk6GJQsqaUBKTNV-1" vertex="1">
          <mxGeometry x="1164" y="824" width="100" height="100" as="geometry" />
        </mxCell>
        <mxCell id="XeEkkl0KRm6nJJpW73FU-441" value="dataLocacao" style="ellipse;whiteSpace=wrap;html=1;fontSize=22;fontStyle=4" parent="WIyWlLk6GJQsqaUBKTNV-1" vertex="1">
          <mxGeometry x="763" y="934" width="137" height="86" as="geometry" />
        </mxCell>
        <mxCell id="XeEkkl0KRm6nJJpW73FU-442" value="dataDevolucao" style="ellipse;whiteSpace=wrap;html=1;fontSize=22;fontStyle=0" parent="WIyWlLk6GJQsqaUBKTNV-1" vertex="1">
          <mxGeometry x="880" y="994" width="164" height="80" as="geometry" />
        </mxCell>
        <mxCell id="XeEkkl0KRm6nJJpW73FU-443" value="valorPagar" style="ellipse;whiteSpace=wrap;html=1;fontSize=22;fontStyle=0" parent="WIyWlLk6GJQsqaUBKTNV-1" vertex="1">
          <mxGeometry x="1035" y="950.5" width="120" height="59" as="geometry" />
        </mxCell>
        <mxCell id="XeEkkl0KRm6nJJpW73FU-444" value="preço" style="ellipse;whiteSpace=wrap;html=1;fontSize=22;fontStyle=0" parent="WIyWlLk6GJQsqaUBKTNV-1" vertex="1">
          <mxGeometry x="1345" y="224.5" width="110" height="59" as="geometry" />
        </mxCell>
        <mxCell id="XeEkkl0KRm6nJJpW73FU-445" value="N" style="text;html=1;align=center;verticalAlign=middle;resizable=0;points=[];autosize=1;strokeColor=none;fillColor=none;" parent="WIyWlLk6GJQsqaUBKTNV-1" vertex="1">
          <mxGeometry x="1757.72" y="343.5" width="30" height="30" as="geometry" />
        </mxCell>
        <mxCell id="XeEkkl0KRm6nJJpW73FU-446" value="N" style="text;html=1;align=center;verticalAlign=middle;resizable=0;points=[];autosize=1;strokeColor=none;fillColor=none;" parent="WIyWlLk6GJQsqaUBKTNV-1" vertex="1">
          <mxGeometry x="1499" y="349" width="30" height="30" as="geometry" />
        </mxCell>
        <mxCell id="XeEkkl0KRm6nJJpW73FU-447" value="N" style="text;html=1;align=center;verticalAlign=middle;resizable=0;points=[];autosize=1;strokeColor=none;fillColor=none;" parent="WIyWlLk6GJQsqaUBKTNV-1" vertex="1">
          <mxGeometry x="969.5" y="288" width="30" height="30" as="geometry" />
        </mxCell>
        <mxCell id="XeEkkl0KRm6nJJpW73FU-448" value="1" style="text;html=1;align=center;verticalAlign=middle;resizable=0;points=[];autosize=1;strokeColor=none;fillColor=none;" parent="WIyWlLk6GJQsqaUBKTNV-1" vertex="1">
          <mxGeometry x="967" y="493.5" width="30" height="30" as="geometry" />
        </mxCell>
        <mxCell id="XeEkkl0KRm6nJJpW73FU-449" value="N" style="text;html=1;align=center;verticalAlign=middle;resizable=0;points=[];autosize=1;strokeColor=none;fillColor=none;" parent="WIyWlLk6GJQsqaUBKTNV-1" vertex="1">
          <mxGeometry x="969.5" y="804" width="30" height="30" as="geometry" />
        </mxCell>
        <mxCell id="XeEkkl0KRm6nJJpW73FU-450" value="1" style="text;html=1;align=center;verticalAlign=middle;resizable=0;points=[];autosize=1;strokeColor=none;fillColor=none;" parent="WIyWlLk6GJQsqaUBKTNV-1" vertex="1">
          <mxGeometry x="969.5" y="598" width="30" height="30" as="geometry" />
        </mxCell>
        <mxCell id="XeEkkl0KRm6nJJpW73FU-451" value="N" style="text;html=1;align=center;verticalAlign=middle;resizable=0;points=[];autosize=1;strokeColor=none;fillColor=none;" parent="WIyWlLk6GJQsqaUBKTNV-1" vertex="1">
          <mxGeometry x="870" y="224.5" width="30" height="30" as="geometry" />
        </mxCell>
        <mxCell id="XeEkkl0KRm6nJJpW73FU-452" value="N" style="text;html=1;align=center;verticalAlign=middle;resizable=0;points=[];autosize=1;strokeColor=none;fillColor=none;" parent="WIyWlLk6GJQsqaUBKTNV-1" vertex="1">
          <mxGeometry x="870" y="849" width="30" height="30" as="geometry" />
        </mxCell>
        <mxCell id="XeEkkl0KRm6nJJpW73FU-453" value="1" style="text;html=1;align=center;verticalAlign=middle;resizable=0;points=[];autosize=1;strokeColor=none;fillColor=none;" parent="WIyWlLk6GJQsqaUBKTNV-1" vertex="1">
          <mxGeometry x="580" y="394" width="30" height="30" as="geometry" />
        </mxCell>
        <mxCell id="XeEkkl0KRm6nJJpW73FU-454" value="1" style="text;html=1;align=center;verticalAlign=middle;resizable=0;points=[];autosize=1;strokeColor=none;fillColor=none;" parent="WIyWlLk6GJQsqaUBKTNV-1" vertex="1">
          <mxGeometry x="580" y="329.5" width="30" height="30" as="geometry" />
        </mxCell>
        <mxCell id="XeEkkl0KRm6nJJpW73FU-455" value="1" style="text;html=1;align=center;verticalAlign=middle;resizable=0;points=[];autosize=1;strokeColor=none;fillColor=none;" parent="WIyWlLk6GJQsqaUBKTNV-1" vertex="1">
          <mxGeometry x="1050" y="224.5" width="30" height="30" as="geometry" />
        </mxCell>
        <mxCell id="XeEkkl0KRm6nJJpW73FU-456" value="1" style="text;html=1;align=center;verticalAlign=middle;resizable=0;points=[];autosize=1;strokeColor=none;fillColor=none;" parent="WIyWlLk6GJQsqaUBKTNV-1" vertex="1">
          <mxGeometry x="1320" y="308" width="30" height="30" as="geometry" />
        </mxCell>
        <mxCell id="XeEkkl0KRm6nJJpW73FU-457" value="1" style="text;html=1;align=center;verticalAlign=middle;resizable=0;points=[];autosize=1;strokeColor=none;fillColor=none;" parent="WIyWlLk6GJQsqaUBKTNV-1" vertex="1">
          <mxGeometry x="1320" y="369" width="30" height="30" as="geometry" />
        </mxCell>
        <mxCell id="XeEkkl0KRm6nJJpW73FU-458" value="1" style="text;html=1;align=center;verticalAlign=middle;resizable=0;points=[];autosize=1;strokeColor=none;fillColor=none;" parent="WIyWlLk6GJQsqaUBKTNV-1" vertex="1">
          <mxGeometry x="1050" y="849" width="30" height="30" as="geometry" />
        </mxCell>
        <mxCell id="XeEkkl0KRm6nJJpW73FU-459" value="1" style="text;html=1;align=center;verticalAlign=middle;resizable=0;points=[];autosize=1;strokeColor=none;fillColor=none;" parent="WIyWlLk6GJQsqaUBKTNV-1" vertex="1">
          <mxGeometry x="1510" y="914" width="30" height="30" as="geometry" />
        </mxCell>
        <mxCell id="XeEkkl0KRm6nJJpW73FU-460" value="N" style="text;html=1;align=center;verticalAlign=middle;resizable=0;points=[];autosize=1;strokeColor=none;fillColor=none;" parent="WIyWlLk6GJQsqaUBKTNV-1" vertex="1">
          <mxGeometry x="1510" y="749" width="30" height="30" as="geometry" />
        </mxCell>
        <mxCell id="XeEkkl0KRm6nJJpW73FU-461" value="N" style="text;html=1;align=center;verticalAlign=middle;resizable=0;points=[];autosize=1;strokeColor=none;fillColor=none;" parent="WIyWlLk6GJQsqaUBKTNV-1" vertex="1">
          <mxGeometry x="1510" y="644.5" width="30" height="30" as="geometry" />
        </mxCell>
        <mxCell id="XeEkkl0KRm6nJJpW73FU-462" value="N" style="text;html=1;align=center;verticalAlign=middle;resizable=0;points=[];autosize=1;strokeColor=none;fillColor=none;" parent="WIyWlLk6GJQsqaUBKTNV-1" vertex="1">
          <mxGeometry x="1425" y="388" width="30" height="30" as="geometry" />
        </mxCell>
        <mxCell id="XeEkkl0KRm6nJJpW73FU-463" value="endereço" style="ellipse;whiteSpace=wrap;html=1;fontSize=22;" parent="WIyWlLk6GJQsqaUBKTNV-1" vertex="1">
          <mxGeometry x="1616.22" y="779" width="110" height="59" as="geometry" />
        </mxCell>
        <mxCell id="XeEkkl0KRm6nJJpW73FU-464" value="id" style="ellipse;whiteSpace=wrap;html=1;fontSize=22;fontStyle=4" parent="WIyWlLk6GJQsqaUBKTNV-1" vertex="1">
          <mxGeometry x="1310" y="789.5" width="110" height="59" as="geometry" />
        </mxCell>
        <mxCell id="XeEkkl0KRm6nJJpW73FU-465" value="CPF" style="ellipse;whiteSpace=wrap;html=1;fontSize=22;fontStyle=4" parent="WIyWlLk6GJQsqaUBKTNV-1" vertex="1">
          <mxGeometry x="750" y="453.5" width="110" height="59" as="geometry" />
        </mxCell>
        <mxCell id="XeEkkl0KRm6nJJpW73FU-466" value="id" style="ellipse;whiteSpace=wrap;html=1;fontSize=22;fontStyle=4" parent="WIyWlLk6GJQsqaUBKTNV-1" vertex="1">
          <mxGeometry x="1850" y="454.5" width="120" height="69" as="geometry" />
        </mxCell>
        <mxCell id="XeEkkl0KRm6nJJpW73FU-467" value="dataCompra" style="ellipse;whiteSpace=wrap;html=1;fontSize=22;fontStyle=0" parent="WIyWlLk6GJQsqaUBKTNV-1" vertex="1">
          <mxGeometry x="816" y="94" width="137" height="86" as="geometry" />
        </mxCell>
        <mxCell id="XeEkkl0KRm6nJJpW73FU-468" value="sexo" style="ellipse;whiteSpace=wrap;html=1;fontSize=22;fontStyle=0" parent="WIyWlLk6GJQsqaUBKTNV-1" vertex="1">
          <mxGeometry x="1752" y="229" width="120" height="69" as="geometry" />
        </mxCell>
        <mxCell id="XeEkkl0KRm6nJJpW73FU-469" value="quantidade" style="ellipse;whiteSpace=wrap;html=1;fontSize=22;fontStyle=0" parent="WIyWlLk6GJQsqaUBKTNV-1" vertex="1">
          <mxGeometry x="1510" y="508" width="140" height="59" as="geometry" />
        </mxCell>
        <mxCell id="XeEkkl0KRm6nJJpW73FU-470" style="rounded=0;orthogonalLoop=1;jettySize=auto;html=1;endArrow=none;endFill=0;dashed=1;" parent="WIyWlLk6GJQsqaUBKTNV-1" edge="1">
          <mxGeometry relative="1" as="geometry">
            <mxPoint x="942" y="147" as="sourcePoint" />
            <mxPoint x="827" y="147" as="targetPoint" />
          </mxGeometry>
        </mxCell>
        <mxCell id="eWyS7J7H_QuW0ip4Bb5o-0" value="autor" style="ellipse;whiteSpace=wrap;html=1;fontSize=22;fontStyle=0" vertex="1" parent="WIyWlLk6GJQsqaUBKTNV-1">
          <mxGeometry x="1525" y="249" width="110" height="59" as="geometry" />
        </mxCell>
        <mxCell id="eWyS7J7H_QuW0ip4Bb5o-1" value="título" style="ellipse;whiteSpace=wrap;html=1;fontSize=22;fontStyle=0" vertex="1" parent="WIyWlLk6GJQsqaUBKTNV-1">
          <mxGeometry x="1484" y="410" width="110" height="59" as="geometry" />
        </mxCell>
      </root>
    </mxGraphModel>
  </diagram>
</mxfile>
